<svg xmlns="http://www.w3.org/2000/svg" width="137.245" height="550.56" viewBox="0 0 137.245 550.56">
  <g id="Group_75" data-name="Group 75" transform="translate(-132.155 -422.86)">
    <path id="Ellipse_" data-name="Ellipse " d="M53.868,62.209a5.416,5.416,0,1,1,5.411,5.651A5.535,5.535,0,0,1,53.868,62.209Zm-26.938,0a5.416,5.416,0,1,1,5.411,5.651A5.535,5.535,0,0,1,26.931,62.209ZM0,62.209a5.535,5.535,0,0,1,5.411-5.652,5.657,5.657,0,0,1,0,11.3A5.535,5.535,0,0,1,0,62.209ZM53.868,33.93a5.416,5.416,0,1,1,5.411,5.652A5.535,5.535,0,0,1,53.868,33.93Zm-26.938,0a5.416,5.416,0,1,1,5.411,5.652A5.535,5.535,0,0,1,26.931,33.93ZM0,33.93a5.535,5.535,0,0,1,5.411-5.651,5.657,5.657,0,0,1,0,11.3A5.535,5.535,0,0,1,0,33.93ZM53.868,5.652a5.416,5.416,0,1,1,10.822,0,5.416,5.416,0,1,1-10.822,0Zm-26.938,0a5.416,5.416,0,1,1,10.822,0,5.416,5.416,0,1,1-10.822,0ZM0,5.652A5.535,5.535,0,0,1,5.411,0a5.535,5.535,0,0,1,5.411,5.652A5.535,5.535,0,0,1,5.411,11.3,5.535,5.535,0,0,1,0,5.652Z" transform="translate(132.155 422.86)" fill="#3fc060"/>
    <path id="Ellipse_2" data-name="Ellipse " d="M56.178,61.07a5.644,5.644,0,1,1,5.643,5.547A5.6,5.6,0,0,1,56.178,61.07Zm-28.093,0a5.644,5.644,0,1,1,5.643,5.547A5.6,5.6,0,0,1,28.086,61.07ZM0,61.07a5.6,5.6,0,0,1,5.643-5.548,5.549,5.549,0,1,1,0,11.1A5.6,5.6,0,0,1,0,61.07ZM56.178,33.309a5.644,5.644,0,1,1,5.643,5.548A5.6,5.6,0,0,1,56.178,33.309Zm-28.093,0a5.644,5.644,0,1,1,5.643,5.548A5.6,5.6,0,0,1,28.086,33.309ZM0,33.309a5.6,5.6,0,0,1,5.643-5.547,5.549,5.549,0,1,1,0,11.1A5.6,5.6,0,0,1,0,33.309ZM56.178,5.548a5.644,5.644,0,0,1,11.286,0,5.644,5.644,0,0,1-11.286,0Zm-28.093,0a5.644,5.644,0,0,1,11.286,0,5.644,5.644,0,0,1-11.286,0ZM0,5.548A5.6,5.6,0,0,1,5.643,0a5.6,5.6,0,0,1,5.643,5.548A5.6,5.6,0,0,1,5.643,11.1,5.6,5.6,0,0,1,0,5.548Z" transform="translate(201.936 906.802)" fill="#162328"/>
    <g id="Ellipse_3" data-name="Ellipse " transform="translate(164.5 615.22)" fill="none" stroke="#162328" stroke-width="10">
      <ellipse cx="13.7" cy="13.77" rx="13.7" ry="13.77" stroke="none"/>
      <ellipse cx="13.7" cy="13.77" rx="8.7" ry="8.77" fill="none"/>
    </g>
    <g id="Objects" transform="translate(230.069 778.775)">
      <g id="Ellipse_4" data-name="Ellipse " fill="none" stroke="#3fc060" stroke-width="10">
        <ellipse cx="14.433" cy="14.17" rx="14.433" ry="14.17" stroke="none"/>
        <ellipse cx="14.433" cy="14.17" rx="9.433" ry="9.17" fill="none"/>
      </g>
    </g>
  </g>
</svg>
