<svg xmlns="http://www.w3.org/2000/svg" width="208.33" height="823.93" viewBox="0 0 208.33 823.93">
  <g id="Group_108" data-name="Group 108" transform="translate(-1906.145 -211.07)">
    <g id="Objects" transform="translate(38.443 -581.729)">
      <g id="Ellipse_" data-name="Ellipse " transform="translate(1985.95 1000.39)" fill="none" stroke="#3fc060" stroke-width="10">
        <ellipse cx="16.309" cy="16.339" rx="16.309" ry="16.339" stroke="none"/>
        <ellipse cx="16.309" cy="16.339" rx="11.309" ry="11.339" fill="none"/>
      </g>
    </g>
    <g id="Objects-2" data-name="Objects" transform="translate(5.825 1.932)">
      <g id="Ellipse_2" data-name="Ellipse " transform="translate(1985.95 1000.39)" fill="none" stroke="#3fc060" stroke-width="10">
        <ellipse cx="16.309" cy="16.339" rx="16.309" ry="16.339" stroke="none"/>
        <ellipse cx="16.309" cy="16.339" rx="11.309" ry="11.339" fill="none"/>
      </g>
    </g>
    <path id="Ellipse_3" data-name="Ellipse " d="M865.227,210.941a5.083,5.083,0,1,1,5.076,4.818A4.953,4.953,0,0,1,865.227,210.941Zm-25.272,0a5.083,5.083,0,1,1,5.076,4.818A4.953,4.953,0,0,1,839.956,210.941Zm-25.266,0a5.083,5.083,0,1,1,5.076,4.818A4.952,4.952,0,0,1,814.69,210.941Zm50.537-24.112a5.083,5.083,0,1,1,5.076,4.819A4.952,4.952,0,0,1,865.227,186.83Zm-25.272,0a5.083,5.083,0,1,1,5.076,4.819A4.952,4.952,0,0,1,839.956,186.83Zm-25.266,0a5.083,5.083,0,1,1,5.076,4.819A4.952,4.952,0,0,1,814.69,186.83Zm50.537-24.111a5.083,5.083,0,1,1,5.076,4.819A4.953,4.953,0,0,1,865.227,162.718Zm-25.272,0a5.083,5.083,0,1,1,5.076,4.819A4.953,4.953,0,0,1,839.956,162.718Zm-25.266,0a5.083,5.083,0,1,1,5.076,4.819A4.952,4.952,0,0,1,814.69,162.718Z" transform="translate(1091.455 53.17)" fill="#3fc060"/>
    <path id="Ellipse_4" data-name="Ellipse " d="M47.851,54.653a4.809,4.809,0,1,1,4.806,4.965A4.888,4.888,0,0,1,47.851,54.653Zm-23.929,0a4.809,4.809,0,1,1,4.806,4.965A4.888,4.888,0,0,1,23.923,54.653ZM0,54.653a4.888,4.888,0,0,1,4.806-4.965,4.967,4.967,0,0,1,0,9.93A4.888,4.888,0,0,1,0,54.653ZM47.851,29.809a4.809,4.809,0,1,1,4.806,4.965A4.888,4.888,0,0,1,47.851,29.809Zm-23.929,0a4.809,4.809,0,1,1,4.806,4.965A4.888,4.888,0,0,1,23.923,29.809ZM0,29.809a4.888,4.888,0,0,1,4.806-4.965,4.967,4.967,0,0,1,0,9.93A4.888,4.888,0,0,1,0,29.809ZM47.851,4.965a4.809,4.809,0,1,1,9.613,0,4.809,4.809,0,1,1-9.613,0Zm-23.929,0a4.809,4.809,0,1,1,9.613,0,4.809,4.809,0,1,1-9.613,0ZM0,4.965A4.888,4.888,0,0,1,4.806,0,4.888,4.888,0,0,1,9.613,4.965,4.888,4.888,0,0,1,4.806,9.93,4.888,4.888,0,0,1,0,4.965Z" transform="translate(2057.011 690.191)" fill="#162328"/>
  </g>
</svg>
