<svg xmlns="http://www.w3.org/2000/svg" width="244.329" height="878.73" viewBox="0 0 244.329 878.73">
  <g id="Group_23" data-name="Group 23" transform="translate(-82.91 -274.86)">
    <path id="Ellipse_" data-name="Ellipse " d="M893.54,244.86a7.92,7.92,0,1,1,7.92,7.9A7.91,7.91,0,0,1,893.54,244.86Zm-39.43,0a7.92,7.92,0,1,1,7.92,7.9A7.91,7.91,0,0,1,854.11,244.86Zm-39.42,0a7.92,7.92,0,1,1,7.92,7.9A7.91,7.91,0,0,1,814.69,244.86Zm78.85-39.531a7.92,7.92,0,1,1,7.92,7.9A7.91,7.91,0,0,1,893.54,205.33Zm-39.43,0a7.92,7.92,0,1,1,7.92,7.9A7.91,7.91,0,0,1,854.11,205.33Zm-39.42,0a7.92,7.92,0,1,1,7.92,7.9A7.91,7.91,0,0,1,814.69,205.33Zm78.85-39.53a7.92,7.92,0,1,1,7.92,7.9A7.91,7.91,0,0,1,893.54,165.8Zm-39.43,0a7.92,7.92,0,1,1,7.92,7.9A7.91,7.91,0,0,1,854.11,165.8Zm-39.42,0a7.92,7.92,0,1,1,7.92,7.9A7.91,7.91,0,0,1,814.69,165.8Z" transform="translate(-640.035 116.96)" fill="#3fc060"/>
    <path id="Ellipse_2" data-name="Ellipse " d="M893.54,244.86a7.92,7.92,0,1,1,7.92,7.9A7.91,7.91,0,0,1,893.54,244.86Zm-39.43,0a7.92,7.92,0,1,1,7.92,7.9A7.91,7.91,0,0,1,854.11,244.86Zm-39.42,0a7.92,7.92,0,1,1,7.92,7.9A7.91,7.91,0,0,1,814.69,244.86Zm78.85-39.531a7.92,7.92,0,1,1,7.92,7.9A7.91,7.91,0,0,1,893.54,205.33Zm-39.43,0a7.92,7.92,0,1,1,7.92,7.9A7.91,7.91,0,0,1,854.11,205.33Zm-39.42,0a7.92,7.92,0,1,1,7.92,7.9A7.91,7.91,0,0,1,814.69,205.33Zm78.85-39.53a7.92,7.92,0,1,1,7.92,7.9A7.91,7.91,0,0,1,893.54,165.8Zm-39.43,0a7.92,7.92,0,1,1,7.92,7.9A7.91,7.91,0,0,1,854.11,165.8Zm-39.42,0a7.92,7.92,0,1,1,7.92,7.9A7.91,7.91,0,0,1,814.69,165.8Z" transform="translate(-582.141 900.83)" fill="#3fc060"/>
    <g id="Ellipse_3" data-name="Ellipse " transform="translate(82.91 541.46)" fill="none" stroke="#3fc060" stroke-width="14">
      <ellipse cx="22.2" cy="22.27" rx="22.2" ry="22.27" stroke="none"/>
      <ellipse cx="22.2" cy="22.27" rx="15.2" ry="15.27" fill="none"/>
    </g>
    <g id="Objects" transform="translate(-1833.495 -185.66)">
      <g id="Ellipse_4" data-name="Ellipse " transform="translate(1985.95 1000.39)" fill="none" stroke="#3fc060" stroke-width="14">
        <ellipse cx="22.2" cy="22.27" rx="22.2" ry="22.27" stroke="none"/>
        <ellipse cx="22.2" cy="22.27" rx="15.2" ry="15.27" fill="none"/>
      </g>
    </g>
  </g>
</svg>
