<svg xmlns="http://www.w3.org/2000/svg" width="178.38" height="589.269" viewBox="0 0 178.38 589.269">
  <g id="Group_76" data-name="Group 76" transform="translate(-1880.8 -251.731)">
    <path id="Ellipse_" data-name="Ellipse " d="M63.861,73.21a6.419,6.419,0,1,1,6.414,6.65A6.536,6.536,0,0,1,63.861,73.21Zm-31.935,0a6.419,6.419,0,1,1,6.414,6.65A6.536,6.536,0,0,1,31.926,73.21ZM0,73.21a6.536,6.536,0,0,1,6.414-6.651,6.655,6.655,0,0,1,0,13.3A6.536,6.536,0,0,1,0,73.21ZM63.861,39.93a6.419,6.419,0,1,1,6.414,6.651A6.536,6.536,0,0,1,63.861,39.93Zm-31.935,0a6.419,6.419,0,1,1,6.414,6.651A6.536,6.536,0,0,1,31.926,39.93ZM0,39.93a6.536,6.536,0,0,1,6.414-6.65,6.655,6.655,0,0,1,0,13.3A6.536,6.536,0,0,1,0,39.93ZM63.861,6.651a6.419,6.419,0,1,1,12.829,0,6.419,6.419,0,1,1-12.829,0Zm-31.935,0a6.419,6.419,0,1,1,12.829,0,6.419,6.419,0,1,1-12.829,0ZM0,6.651A6.536,6.536,0,0,1,6.414,0a6.536,6.536,0,0,1,6.414,6.651A6.536,6.536,0,0,1,6.414,13.3,6.536,6.536,0,0,1,0,6.651Z" transform="translate(1880.8 251.731)" fill="#3fc060"/>
    <path id="Ellipse_2" data-name="Ellipse " d="M61.363,71.376a6.171,6.171,0,1,1,6.164,6.484A6.33,6.33,0,0,1,61.363,71.376Zm-30.685,0a6.171,6.171,0,1,1,6.163,6.484A6.33,6.33,0,0,1,30.678,71.376ZM0,71.376a6.33,6.33,0,0,1,6.164-6.484,6.492,6.492,0,0,1,0,12.968A6.33,6.33,0,0,1,0,71.376ZM61.363,38.93a6.171,6.171,0,1,1,6.164,6.484A6.33,6.33,0,0,1,61.363,38.93Zm-30.685,0a6.171,6.171,0,1,1,6.163,6.484A6.33,6.33,0,0,1,30.678,38.93ZM0,38.93a6.33,6.33,0,0,1,6.164-6.484,6.492,6.492,0,0,1,0,12.968A6.33,6.33,0,0,1,0,38.93ZM61.363,6.484a6.171,6.171,0,1,1,12.327,0,6.171,6.171,0,1,1-12.327,0Zm-30.685,0A6.171,6.171,0,1,1,43,6.484a6.171,6.171,0,1,1-12.327,0ZM0,6.484A6.33,6.33,0,0,1,6.164,0a6.33,6.33,0,0,1,6.163,6.484,6.33,6.33,0,0,1-6.163,6.484A6.33,6.33,0,0,1,0,6.484Z" transform="translate(1985.49 574.085)" fill="#162328"/>
    <g id="Objects" transform="translate(2007.23 450.591)">
      <g id="Ellipse_3" data-name="Ellipse " fill="none" stroke="#3fc060" stroke-width="10">
        <ellipse cx="15.105" cy="15.17" rx="15.105" ry="15.17" stroke="none"/>
        <ellipse cx="15.105" cy="15.17" rx="10.105" ry="10.17" fill="none"/>
      </g>
    </g>
    <g id="Objects-2" data-name="Objects" transform="translate(1906.12 810.3)">
      <g id="Ellipse_4" data-name="Ellipse " fill="none" stroke="#3fc060" stroke-width="10">
        <ellipse cx="15.59" cy="15.35" rx="15.59" ry="15.35" stroke="none"/>
        <ellipse cx="15.59" cy="15.35" rx="10.59" ry="10.35" fill="none"/>
      </g>
    </g>
  </g>
</svg>
