<svg xmlns="http://www.w3.org/2000/svg" width="330.355" height="928.54" viewBox="0 0 330.355 928.54">
  <g id="Group_22" data-name="Group 22" transform="translate(-1837.655 -180)">
    <path id="Ellipse_" data-name="Ellipse " d="M893.54,244.86a7.92,7.92,0,1,1,7.92,7.9A7.91,7.91,0,0,1,893.54,244.86Zm-39.43,0a7.92,7.92,0,1,1,7.92,7.9A7.91,7.91,0,0,1,854.11,244.86Zm-39.42,0a7.92,7.92,0,1,1,7.92,7.9A7.91,7.91,0,0,1,814.69,244.86Zm78.85-39.531a7.92,7.92,0,1,1,7.92,7.9A7.91,7.91,0,0,1,893.54,205.33Zm-39.43,0a7.92,7.92,0,1,1,7.92,7.9A7.91,7.91,0,0,1,854.11,205.33Zm-39.42,0a7.92,7.92,0,1,1,7.92,7.9A7.91,7.91,0,0,1,814.69,205.33Zm78.85-39.53a7.92,7.92,0,1,1,7.92,7.9A7.91,7.91,0,0,1,893.54,165.8Zm-39.43,0a7.92,7.92,0,1,1,7.92,7.9A7.91,7.91,0,0,1,854.11,165.8Zm-39.42,0a7.92,7.92,0,1,1,7.92,7.9A7.91,7.91,0,0,1,814.69,165.8Z" transform="translate(1022.965 22.1)" fill="#3fc060"/>
    <path id="Ellipse_2" data-name="Ellipse " d="M893.54,244.86a7.92,7.92,0,1,1,7.92,7.9A7.91,7.91,0,0,1,893.54,244.86Zm-39.43,0a7.92,7.92,0,1,1,7.92,7.9A7.91,7.91,0,0,1,854.11,244.86Zm-39.42,0a7.92,7.92,0,1,1,7.92,7.9A7.91,7.91,0,0,1,814.69,244.86Zm78.85-39.531a7.92,7.92,0,1,1,7.92,7.9A7.91,7.91,0,0,1,893.54,205.33Zm-39.43,0a7.92,7.92,0,1,1,7.92,7.9A7.91,7.91,0,0,1,854.11,205.33Zm-39.42,0a7.92,7.92,0,1,1,7.92,7.9A7.91,7.91,0,0,1,814.69,205.33Zm78.85-39.53a7.92,7.92,0,1,1,7.92,7.9A7.91,7.91,0,0,1,893.54,165.8Zm-39.43,0a7.92,7.92,0,1,1,7.92,7.9A7.91,7.91,0,0,1,854.11,165.8Zm-39.42,0a7.92,7.92,0,1,1,7.92,7.9A7.91,7.91,0,0,1,814.69,165.8Z" transform="translate(1258.63 555.24)" fill="#3fc060"/>
    <g id="Objects" transform="translate(65.17 63.61)">
      <g id="Ellipse_3" data-name="Ellipse " transform="translate(1985.95 1000.39)" fill="none" stroke="#3fc060" stroke-width="14">
        <ellipse cx="22.2" cy="22.27" rx="22.2" ry="22.27" stroke="none"/>
        <ellipse cx="22.2" cy="22.27" rx="15.2" ry="15.27" fill="none"/>
      </g>
    </g>
    <g id="Objects-2" data-name="Objects" transform="translate(-28.46 -633.73)">
      <g id="Ellipse_4" data-name="Ellipse " transform="translate(1985.95 1000.39)" fill="none" stroke="#3fc060" stroke-width="14">
        <ellipse cx="22.2" cy="22.27" rx="22.2" ry="22.27" stroke="none"/>
        <ellipse cx="22.2" cy="22.27" rx="15.2" ry="15.27" fill="none"/>
      </g>
    </g>
  </g>
</svg>
