<svg xmlns="http://www.w3.org/2000/svg" width="44.4" height="44.54" viewBox="0 0 44.4 44.54">
  <g id="Ellipse_" data-name="Ellipse " fill="none">
    <path d="M22.2,0A22.27,22.27,0,1,1,0,22.27,22.235,22.235,0,0,1,22.2,0Z" stroke="none"/>
    <path d="M 22.20000076293945 14 C 17.67850112915039 14 14 17.70989990234375 14 22.27000045776367 C 14 26.83010101318359 17.67850112915039 30.54000091552734 22.20000076293945 30.54000091552734 C 26.72150039672852 30.54000091552734 30.40000152587891 26.83010101318359 30.40000152587891 22.27000045776367 C 30.40000152587891 17.70989990234375 26.72150039672852 14 22.20000076293945 14 M 22.20000076293945 0 C 34.46072006225586 0 44.40000152587891 9.970619201660156 44.40000152587891 22.27000045776367 C 44.40000152587891 34.56938171386719 34.46072006225586 44.54000091552734 22.20000076293945 44.54000091552734 C 9.939281463623047 44.54000091552734 0 34.56938171386719 0 22.27000045776367 C 0 9.970619201660156 9.939281463623047 0 22.20000076293945 0 Z" stroke="none" fill="#3fc060"/>
  </g>
</svg>
