<svg xmlns="http://www.w3.org/2000/svg" width="82.69" height="77.86" viewBox="0 0 82.69 77.86">
  <path id="Ellipse_" data-name="Ellipse " d="M883.547,229.276a6.931,6.931,0,1,1,6.916,6.484A6.711,6.711,0,0,1,883.547,229.276Zm-34.433,0a6.931,6.931,0,1,1,6.916,6.484A6.711,6.711,0,0,1,849.114,229.276Zm-34.424,0a6.931,6.931,0,1,1,6.916,6.484A6.711,6.711,0,0,1,814.69,229.276Zm68.857-32.446a6.931,6.931,0,1,1,6.916,6.484A6.711,6.711,0,0,1,883.547,196.83Zm-34.433,0a6.931,6.931,0,1,1,6.916,6.484A6.711,6.711,0,0,1,849.114,196.83Zm-34.424,0a6.931,6.931,0,1,1,6.916,6.484A6.711,6.711,0,0,1,814.69,196.83Zm68.857-32.446a6.931,6.931,0,1,1,6.916,6.484A6.711,6.711,0,0,1,883.547,164.384Zm-34.433,0a6.931,6.931,0,1,1,6.916,6.484A6.711,6.711,0,0,1,849.114,164.384Zm-34.424,0a6.931,6.931,0,1,1,6.916,6.484A6.711,6.711,0,0,1,814.69,164.384Z" transform="translate(-814.69 -157.9)" fill="#3fc060"/>
</svg>
