<svg xmlns="http://www.w3.org/2000/svg" width="851.289" height="378.43" viewBox="0 0 851.289 378.43">
  <g id="Groupe_27" data-name="Groupe 27" transform="translate(0 -793.57)">
    <path id="Ellipse_" data-name="Ellipse " d="M37.644,719.415a5.916,5.916,0,1,1,5.913,5.735A5.825,5.825,0,0,1,37.644,719.415Zm-29.437,0a5.825,5.825,0,0,1,5.913-5.734,5.737,5.737,0,1,1,0,11.469A5.826,5.826,0,0,1,8.207,719.415Zm-29.437,0a5.825,5.825,0,0,1,5.913-5.734A5.825,5.825,0,0,1-9.4,719.415a5.826,5.826,0,0,1-5.913,5.735A5.826,5.826,0,0,1-21.23,719.415Zm58.874-28.7a5.916,5.916,0,1,1,5.913,5.735A5.826,5.826,0,0,1,37.644,690.72Zm-29.437,0a5.826,5.826,0,0,1,5.913-5.735,5.738,5.738,0,1,1,0,11.47A5.826,5.826,0,0,1,8.207,690.72Zm-29.437,0a5.826,5.826,0,0,1,5.913-5.735A5.826,5.826,0,0,1-9.4,690.72a5.826,5.826,0,0,1-5.913,5.735A5.826,5.826,0,0,1-21.23,690.72Zm58.874-28.7a5.916,5.916,0,1,1,5.913,5.735A5.826,5.826,0,0,1,37.644,662.025Zm-29.437,0a5.826,5.826,0,0,1,5.913-5.735,5.738,5.738,0,1,1,0,11.47A5.826,5.826,0,0,1,8.207,662.025Zm-29.437,0a5.826,5.826,0,0,1,5.913-5.735A5.826,5.826,0,0,1-9.4,662.025a5.826,5.826,0,0,1-5.913,5.735A5.826,5.826,0,0,1-21.23,662.025Z" transform="translate(51.94 137.28)" fill="#162328"/>
    <g id="Groupe_26" data-name="Groupe 26">
      <g id="Design" transform="translate(-16.324 0.506)">
        <path id="Tracé_3" data-name="Tracé 3" d="M15.324,302.493V-5S134.776,19.11,244.039,94.139c46.437,31.887,76.629,55.357,126.9,87.709s69.091,40.744,80.414,44.183,26.609,6.2,69.531-3.781,108.814-23.745,116.3-25.205,26.7-3.817,51.655,4.024,39.559,16.615,50.946,24.961,22.487,22.345,22.487,22.345A140.123,140.123,0,0,1,777.033,272.6c5.721,12.587,9.229,29.9,9.229,29.9Z" transform="translate(1 869)" fill="#3fc060"/>
      </g>
      <g id="Ellipse_2" data-name="Ellipse " transform="translate(806.89 1026.585)" fill="none" stroke="#3fc060" stroke-width="14">
        <ellipse cx="22.2" cy="22.27" rx="22.2" ry="22.27" stroke="none"/>
        <ellipse cx="22.2" cy="22.27" rx="15.2" ry="15.27" fill="none"/>
      </g>
    </g>
  </g>
</svg>
