<svg xmlns="http://www.w3.org/2000/svg" width="1296.524" height="682" viewBox="0 0 1296.524 682">
  <g id="Groupe_24" data-name="Groupe 24" transform="translate(0 1)">
    <g id="Groupe_23" data-name="Groupe 23">
      <g id="Groupe_22" data-name="Groupe 22" transform="translate(2665 -1244.752)">
        <g id="Design" transform="translate(-2665 1243.752)">
          <path id="Tracé_2" data-name="Tracé 2" d="M15.324-5.094V186.556s74.531-15.027,142.7-61.79C187,104.892,214.819,84.1,237.206,70.1c29.517-24.018,50.174-27.537,50.174-27.537s16.6-3.866,43.383,2.356,68.174,15.393,72.6,15.876a73.852,73.852,0,0,0,32.195-2.675c15.573-4.887,22.113-7.475,31.787-15.558s8.051-6.9,14.031-13.927,6.253-8.668,10.144-14.461,4.452-7.064,5.422-8.712.989-10.711.989-10.711Z" transform="translate(-15.324 5.248)" fill="#3fc060"/>
          <path id="Tracé_3" data-name="Tracé 3" d="M15.324,157.828V-5S90.1,7.767,158.5,47.5c29.069,16.885,47.969,29.313,79.437,46.445s43.251,21.575,50.339,23.4,16.657,3.285,43.526-2,68.117-12.574,72.8-13.347,16.712-2.021,32.336,2.131,24.764,8.8,31.892,13.218,14.077,11.833,14.077,11.833A73.63,73.63,0,0,1,492.152,142c3.582,6.665,5.777,15.831,5.777,15.831Z" transform="translate(-15.324 524.172)" fill="#3fc060"/>
        </g>
        <g id="Objects" transform="translate(-2655.29 1339.485)">
          <path id="Ellipse_" data-name="Ellipse " d="M48.039,48.458a4.846,4.846,0,1,1,4.825,4.4A4.628,4.628,0,0,1,48.039,48.458Zm-24.023,0a4.628,4.628,0,0,1,4.825-4.4,4.421,4.421,0,1,1,0,8.8A4.628,4.628,0,0,1,24.017,48.458ZM0,48.458a4.628,4.628,0,0,1,4.825-4.4,4.421,4.421,0,1,1,0,8.8A4.628,4.628,0,0,1,0,48.458ZM48.039,26.43a4.846,4.846,0,0,1,9.651,0,4.846,4.846,0,0,1-9.651,0Zm-24.023,0a4.628,4.628,0,0,1,4.825-4.4,4.628,4.628,0,0,1,4.825,4.4,4.628,4.628,0,0,1-4.825,4.4A4.628,4.628,0,0,1,24.017,26.43ZM0,26.43a4.628,4.628,0,0,1,4.825-4.4,4.628,4.628,0,0,1,4.825,4.4,4.628,4.628,0,0,1-4.825,4.4A4.628,4.628,0,0,1,0,26.43ZM48.039,4.4a4.846,4.846,0,0,1,9.651,0,4.846,4.846,0,0,1-9.651,0Zm-24.023,0A4.628,4.628,0,0,1,28.842,0a4.628,4.628,0,0,1,4.825,4.4,4.628,4.628,0,0,1-4.825,4.4A4.628,4.628,0,0,1,24.017,4.4ZM0,4.4A4.628,4.628,0,0,1,4.825,0,4.628,4.628,0,0,1,9.651,4.4,4.628,4.628,0,0,1,4.825,8.8,4.628,4.628,0,0,1,0,4.4Z" transform="translate(711.92 0)" fill="#3fc060"/>
          <path id="Ellipse_2" data-name="Ellipse " d="M42.219,48.458a4.243,4.243,0,1,1,4.24,4.4A4.323,4.323,0,0,1,42.219,48.458Zm-21.11,0a4.243,4.243,0,1,1,4.24,4.4A4.323,4.323,0,0,1,21.11,48.458ZM0,48.458a4.323,4.323,0,0,1,4.24-4.4,4.405,4.405,0,0,1,0,8.8A4.324,4.324,0,0,1,0,48.458ZM42.219,26.43a4.243,4.243,0,1,1,4.24,4.4A4.324,4.324,0,0,1,42.219,26.43Zm-21.11,0a4.243,4.243,0,1,1,4.24,4.4A4.324,4.324,0,0,1,21.11,26.43ZM0,26.43a4.324,4.324,0,0,1,4.24-4.4,4.405,4.405,0,0,1,0,8.8A4.324,4.324,0,0,1,0,26.43ZM42.219,4.4a4.243,4.243,0,1,1,8.48,0,4.243,4.243,0,1,1-8.48,0Zm-21.11,0a4.243,4.243,0,1,1,8.48,0,4.243,4.243,0,1,1-8.48,0ZM0,4.4A4.324,4.324,0,0,1,4.24,0,4.324,4.324,0,0,1,8.48,4.4,4.324,4.324,0,0,1,4.24,8.8,4.324,4.324,0,0,1,0,4.4Z" transform="translate(0 325.005)" fill="#162328"/>
          <g id="Ellipse_3" data-name="Ellipse " transform="translate(491.18 487.242)" fill="none" stroke="#3fc060" stroke-width="10">
            <ellipse cx="15.7" cy="15.27" rx="15.7" ry="15.27" stroke="none"/>
            <ellipse cx="15.7" cy="15.27" rx="10.7" ry="10.27" fill="none"/>
          </g>
        </g>
        <g id="Ellipse_4" data-name="Ellipse " transform="translate(-1400.828 1874.196)" fill="none">
          <path d="M16.176,0A16.094,16.094,0,1,1,0,16.093,16.135,16.135,0,0,1,16.176,0Z" stroke="none"/>
          <path d="M 16.17572021484375 9.999998092651367 C 12.77042007446289 9.999998092651367 10.0000057220459 12.73349761962891 10.0000057220459 16.09342575073242 C 10.0000057220459 19.45335388183594 12.77042007446289 22.18685531616211 16.17572021484375 22.18685531616211 C 19.58102035522461 22.18685531616211 22.3514347076416 19.45335388183594 22.3514347076416 16.09342575073242 C 22.3514347076416 12.73349761962891 19.58102035522461 9.999998092651367 16.17572021484375 9.999998092651367 M 16.17572021484375 -3.814697265625e-06 C 25.10931968688965 -3.814697265625e-06 32.35143280029297 7.205268859863281 32.35143280029297 16.09342575073242 C 32.35143280029297 24.98158264160156 25.10931968688965 32.18685531616211 16.17572021484375 32.18685531616211 C 7.242120742797852 32.18685531616211 7.62939453125e-06 24.98158264160156 7.62939453125e-06 16.09342575073242 C 7.62939453125e-06 7.205268859863281 7.242120742797852 -3.814697265625e-06 16.17572021484375 -3.814697265625e-06 Z" stroke="none" fill="#3fc060"/>
        </g>
        <g id="Groupe_21" data-name="Groupe 21" transform="translate(-2470.031 1297.699)">
          <g id="Groupe_11" data-name="Groupe 11">
            <g id="Ellipse_5" data-name="Ellipse " fill="none" stroke="#3fc060" stroke-width="14">
              <ellipse cx="22.18" cy="22.27" rx="22.18" ry="22.27" stroke="none"/>
              <ellipse cx="22.18" cy="22.27" rx="15.18" ry="15.27" fill="none"/>
            </g>
          </g>
          <circle id="Ellipse_2-2" data-name="Ellipse 2" cx="8.5" cy="8.5" r="8.5" transform="translate(14.031 14.052)" fill="#fff"/>
          <path id="Tracé_5" data-name="Tracé 5" d="M22.5,0A21.7,21.7,0,0,1,40.642,9.8L4.169,35.282a16.692,16.692,0,0,1-1.6-2.379C1.443,31.021,0,28.1,0,22.5A22.5,22.5,0,0,1,22.5,0Z" transform="translate(0.05 0.125)" fill="#fff"/>
          <path id="Tracé_6" data-name="Tracé 6" d="M199.571,105.161C213.558,95.469,213.61,95.4,213.61,95.4s-4.978-7.178-12.022-2.475S199.571,105.161,199.571,105.161Z" transform="translate(-184.01 -77.68)" fill="#3fc060"/>
        </g>
      </g>
    </g>
  </g>
</svg>
