<svg xmlns="http://www.w3.org/2000/svg" width="339.293" height="121.905" viewBox="0 0 339.293 121.905">
  <g id="Informations" transform="translate(-286.642 -736.539)">
    <g id="Order_Now" data-name="Order Now" transform="translate(286.642 736.539)">
      <path id="BG" d="M508.325,803.714l-4.818.568.141,2.345,1.629.2q.036.587.071,1.174l-2.444-.305q-.035-.587-.071-1.173l-.814-.1q.035.586.07,1.173a23.049,23.049,0,0,0-2.809-.41q.063,1.172.125,2.346a49.549,49.549,0,0,1,5.269.719c2.307,8.023,1.15,7.6,8.617,8.111q.074,1.183.148,2.367l2.541,1.5-.6,3.453,6.293-3.9.076,1.188c2.449,2.418,2.2,5.119,3.85,8.767l1.738,1.412q.157,2.391.314,4.787c-.973.878-.974.625-1.506,2.175l.831.111c1.385,1.751-1.528.958-1.584.977l1.066,3.713,5.754-.415c-.522,3.622.292,5.316,2.235,8.668l1.757,1.44c-.289,1.905-1.194,1.374-1.514,2.189.122,1.5,1.567,3.805,2.085,6.3l-1.679-.235c.681,3.037,1.059,2.8,2.007,5.1l-3.443-1.692q.04.608.081,1.216l-.839-.119q.121,1.824.242,3.65c-3.6.075-2.1,1.416-5.711,1.6-.627,4.638-2.032,4.738-4.551,6.582q.039.609.078,1.219l-1.673-.244.077,1.219-1.672-.245q.039.61.077,1.22l-7.429.117q.037.609.074,1.218l-3.326-.49q.037.608.074,1.217l-2.491-.368q.037.608.073,1.217c-1.106-.164-1.466-.319-3.315-.491l-1.257,2.3-16.435.867q.03.606.06,1.212l-4.118-.391q.029.605.059,1.211l-2.74-.261q.029.605.058,1.211l-17.552,1.922c-.786,1.448-2.153,1.513-2.607,2.15-.958,1.345,1.191.636,1.408,1.34,2.194,1.771-2.6.931-2.659.942q.026.6.052,1.208l-6.763-.666c-.122.023.282.776-2.649.939a10.946,10.946,0,0,0-2.838-3.875q.024.6.048,1.2l-6.666.542q.023.6.046,1.2l-5.354-.529-1.247,2.267-5.336-.531.043,1.2-14.475,2.125q-.038-1.195-.077-2.389L401.9,898.922l-1.242,2.249-6.583-1.849-2.482,4.489-11.746-2.38q.015.592.029,1.184l-5.181-.529-1.238,2.234a2.142,2.142,0,0,1-2.611-1.448c-2.072-.458-1.544,1.786-2.527,2.1-4.979,1.583-6.965-1.431-11.54-.014q-.011-.589-.023-1.178c-1.471-1.143-.183.13-1.3-1.309,3.519-.488,2.857-.035,3.77-3.136l-5.115-.52q-.011-.587-.022-1.174l2.555.259c2.38-2.962,3.536-1.191,8.948-.268q.025,1.177.051,2.356l6.441.655q-.013-.59-.027-1.18l2.611,1.443q-.014-.591-.028-1.182l1.293.131q-.014-.591-.028-1.181l-6.453-.652-.026-1.178L372,897.1c4.024-3.454,4.739.308,11.588-1.194q-.015-.591-.03-1.182l2.6.259q-.016-.591-.031-1.182l6.575,3.016q-.016-.593-.033-1.185l2.645,1.446,1.24-2.242,3.927.389q-.018-.594-.035-1.187l2.623.259q-.018-.594-.036-1.187c2.665-1.063,3.187.078,5.181-1.859-1.523-1.148-.187.132-1.352-1.315l-11.85-3.511.034,1.181-12.962-.084q.03,1.177.06,2.356l-5.173-.507q-.014-.588-.028-1.176l-1.29-.126c-1.267.476-.014,3-3.811,1.971l-.027-1.175-2.572-.252-.026-1.173L357.76,889.82q.011.585.023,1.17l3.836.381q.012.586.024,1.173l-10.213-1.016-1.314-2.463c-3.694-1.718-12.64-.032-13.888.95l3.787.377q.009.582.018,1.165l-7.568-.756q-.008-.581-.016-1.162l-1.258-.125q.008.581.016,1.162l-3.768-.376q.008.58.015,1.161c-1.661.312-5.076-.019-5.025-1.662l-1.25-.125q.013,1.159.026,2.318l-11.225-2.283c-1.713.171.486,1.557-1.231,1.03-.318-.1-.382-1.685-2.489-1.4q0,.577.009,1.154l-6.183-.622q0,.576.007,1.152l-2.467-.249q0,.575.007,1.151l-13.5-.221q0,.574,0,1.148c-13.3-.358-33.051.726-48.263,1.869q0-.567.01-1.133l1.189.124q.014-1.7.028-3.4a12.987,12.987,0,0,1-4.737-1.617c1.983-4.821-.03-6.966-7.018-7.471l1.214-3.248,1.178.117q.012-1.121.023-2.242c1.215-1.2,3.3-.726,5.911-.541q.01-1.122.02-2.243L221.93,870.8q.007-.558.013-1.115c2.364-.412,1.013.232,2.358-.889l-3.516-.339q.013-1.114.027-2.227a13.869,13.869,0,0,1-9.271-5.326,11.273,11.273,0,0,0,4.67-.67c-1.31-1.386,0-.442-2.314-1.326q.007-.554.015-1.107l-1.163-.108q-.008.553-.016,1.106c-1.937.9-.961-1.684-1.13-2.32,1.34-1.136.463.039,1.192-2.1l3.488.321,1.207-3.208a11.807,11.807,0,0,1-6.9-5.037l2.317.208,1.2-3.2-1.159-.1q.023-1.647.046-3.293l-1.157-.1c-.769-2.427.716-7.8-2.2-7.858q.008-.546.016-1.091l2.307.2,1.2-3.177,3.452,1.383q.007-.546.015-1.092c1.088-1.087.763.147,1.185-2.087l-1.157-.1.014-1.091,4.63.383,1.2-3.179c1.639.193-.466.789,1.147,1.186.975,2.146,1.186-2.088,1.186-2.088-1.307-1.349-.462-.041-1.135-2.274-2.518-.663-3.29-.988-4.6-2.548l6.959-.533c-1.541-5.35-1.367-1.158-4.594-3.627q.007-.542.013-1.085l2.313.181c.932-.54,5.695-.191,9.285.726.154.039.418,1.8,2.32,1.273q0-.545.01-1.09a4.081,4.081,0,0,0,2.351-2,4.969,4.969,0,0,1-2.313-2.357l3.5.269q0-.544.009-1.088a24.609,24.609,0,0,0-8.136-1.708l.011-1.085-5.8.643,1.192-3.159,4.632.348q.005-.541.011-1.083c-3.819-1.024-4.424-2.227-9.222-2.849.841-2.995,2.092-2.96,3.521-5.133l-2.3-.167-1.112-3.307,8.069.576q.005-.538.011-1.076c.89-.294,7.619,3.133,10.424,1.821q0-.54.008-1.08c-2.33-.785-1.007.058-2.315-1.244l2.324.164q0-.54.008-1.079l3.491.246-1.188,3.159,3.5.25c.863-2.928.341-2.4,3.524-3q0-.54.006-1.082l7.029.492q0-.542,0-1.084l1.174.082,1.168,2.251,8.254.581q0-.544,0-1.088l2.365,1.255q0-.545,0-1.089l2.369.166q0-.545,0-1.089l4.747.331q0-.545,0-1.09l4.76.33q0,.546,0,1.092l5.971.416q0-.547,0-1.094l1.2.083q0,.547,0,1.095l7.194-.6q0,.548.006,1.1a4.135,4.135,0,0,0-2.393,2.027l6.019.424q0,.55.007,1.1l-2.411-.17c-.041,1.551.422-.252,1.212,1.185l-1.186,3.217,2.413.174q.007,1.1.014,2.207l-1.208-.088q0-.552-.007-1.1l-1.207-.087q0,.551.006,1.1l-6.021-.438q0,.551,0,1.1c-1.363,1.154-.479-.031-1.193,2.115l10.848-.3q-.007-1.105-.015-2.21c6.174-.4,4.1-.762,9.712,1.814q0,.554.01,1.109a2.943,2.943,0,0,0,3.645-.842c3.3-.5,6.374,1.611,7.346,1.649q-.006-.556-.013-1.113l7.352-.576q.015,1.114.03,2.23l4.931.362q-.016-1.117-.032-2.234l18.593.232q-.01-.561-.021-1.122c.09-.008,5.914,2.31,8.778,1.756q-.012-.563-.023-1.125l6.282.453q-.013-.564-.025-1.127l7.568.543q-.014-.565-.027-1.129l10.142.724q-.015-.566-.03-1.132l10.2.725q-.016-.568-.033-1.135l7.69.544q-.018-.568-.035-1.137l2.606,1.319,1.215-2.185,23.24-.658q.043,1.145.085,2.291l2.569-.964c.513.444-.226,1.929,1.351,1.238l3.749-4.315,5.246.36q.023.574.046,1.148c3.441,1.019,6.074-.172,7.853-.606-1.709-1.764-3.726-2.039-5.411-3.807l13.145-.259q.025.576.051,1.152c5.352,1.57,7.057.8,10.631.719l-.161-3.465a32.844,32.844,0,0,1,13.371.891q.029.579.058,1.159c.3.061,4.8-1.5,8.016-.621a4.174,4.174,0,0,0,4.112,1.433q-.031-.582-.061-1.163l4.061.271q-.031-.582-.062-1.164c6.829,1.228,7.677,2.539,11.8,3.81q.036.585.073,1.17l-2.445-.3q.036.585.072,1.17c1.469,1.437,1.886,2.7,2.737,4.987C508.114,802.392,509.03,800.362,508.325,803.714ZM288.618,783.539l2.393.163q0,.546,0,1.093C288.608,784,289.981,784.856,288.618,783.539Zm-35.525,7.324q0,.542-.005,1.085l-1.172-.084c-2.217.774,2.34,1.253,2.34,1.253,1-1.161-.148-.168,1.179-1C254.1,790.785,255.432,791.683,253.093,790.864Zm31.97,2.272c.926,1.179,1.474,1.184,2.4,2.365l3.594-.841q0-.549,0-1.1ZM476.418,803.7l-3.291.488q-.017-.36-.034-.721c-.984-.887-.331-.026-.9-1.5l-3.316-.231-.728,2.1-3.31-.233-.729,2.1,3.31.235q.016.361.033.721l-1.656-.118c-.848,1.214-3.339,2-4.831,2.526q-.016-.36-.032-.72l-.826-.059-.127-2.877L454.219,805q.062,1.436.123,2.872l-1.675-.836-.761,1.377-1.642-.118q.015.359.03.718l-2.431.54q.015.359.03.718l2.461.179-.731,2.1,4.111.3a9.444,9.444,0,0,1,6.5-1.68c1.163.233-.287.862.858.781l-.032-.721,2.481.18q-.016-.361-.032-.721l7.463.541q-.017-.361-.034-.723l2.494.18q-.017-.362-.034-.723l7.5.541q-.018-.362-.035-.724l1.672.12c.922-.447,1.832-3.362,4.04-2.6q.018.362.037.725l1.676.119q-.037-.725-.074-1.45a10.04,10.04,0,0,1,3.394.963q-.037-.726-.075-1.451c-1-.893-.335-.026-.914-1.509l4.2.295-.076-1.451-3.36-.234a8.86,8.86,0,0,1-1.025-3.677l-4.149.435-.763,1.387-2.506-.174q.018.361.036.722l-.835-.058c-.285-.112-.292-1.276-1.7-.838a16.971,16.971,0,0,1-2.394,1.991q-.052-1.082-.105-2.164l-.832-.058q.018.36.035.721l-.832-.058Q476.366,802.621,476.418,803.7Zm-168.461-7.837,1.214.087q0,.553.009,1.105l-1.2,2.124-1.214-.088Zm-36-.385c-.682,2.622-1.244,2.321-2.376,4.2l1.187.087c1.676-1.809,3.267-1.932,8.333-.486,1.646.47-.4,1.568,1.2,1.185l1.191-2.108c1.067-.386,3.633-.414,4.783-.75q0-.549,0-1.1l-4.784-.345C279.673,794.717,275.285,795.16,271.961,795.48Zm-53.71-2.8,3.448.25q-.019,1.613-.039,3.228C218.492,795.151,219.089,795.673,218.25,792.684Zm254.74,8.624c.985.886.016.287,1.7.836C473.7,801.258,474.669,801.857,472.99,801.308Zm11.661.811,3.346.233q.018.362.037.724l-.837-.058q.018.362.037.724l-2.51-.176Zm-250.265-6.1-1.18,2.078,4.648.343q0-.542.009-1.083l4.66.342q0-.542.008-1.084Zm2.295,3.418q-.009,1.083-.018,2.168l8.159,1.7q.007-1.088.015-2.175Zm231.5,5.128,2.487.176q.017.36.034.721l-2.487-.176Q468.2,804.92,468.183,804.56Zm22.74,5.945q-.038-.726-.075-1.453l-3.32.486q.018.363.037.726Zm-38.985-1.369,1.644.119q.031.719.061,1.438l-1.645-.12Q451.968,809.855,451.937,809.136Zm32.457,4.516,5.034.367.729-2.121-5.034-.364Zm-251.3-3.628,2.329.181q-.01,1.089-.019,2.178l-2.33-.182Q233.084,811.113,233.094,810.025Zm304.607,54.4c1.052,1.521.335.051,1.006,2.552l-.842-.119Zm1.584,11.091,2.533.364q.042.612.084,1.224l2.453-.859q.042.612.084,1.225c1.061,1.536.337.053,1.016,2.574l3.307-.736.172,2.456-3.394-.493.34,4.916c-1.906.085-2.178-.151-3.308.732q.042.615.084,1.23l-2.541-.375.083,1.23-3.3.729.082,1.23-3.378-.5q.041.614.081,1.229l-5.056-.752q-.04-.614-.08-1.227l-2.442.852-.079-1.226c-1.019-1.176-.112.137-.918-1.349l3.36.5q-.04-.613-.08-1.226l-.84-.124c.63-1.408.5-1.351,1.522-2.2q-.04-.612-.08-1.224c.586-.329,1.821,2.152,3.445,1.719,0,0,.152-.846,1.6-.978.255-3.832,1.128-2.325,1.441-3.428.5-1.78-.71-4.331-1.168-5.012l3.369.485c1.055,1.531.036.487,1.77,1.467Q539.368,876.744,539.285,875.521Zm-186.625,13.8c1.476,1.475.013.466,2.57,1.421C353.753,889.262,355.216,890.271,352.66,889.316Zm8.935.883,2.562.253q.012.587.025,1.173C361.593,890.7,363.076,891.656,361.595,890.2Zm-17.784.57,2.536.252q.01.584.02,1.168C343.807,891.265,345.271,892.22,343.811,890.769Zm-103.146-.092-2.381-.245q0,.566-.009,1.132l1.19.123q0,.567-.009,1.133C240.823,891.669,239.931,892.865,240.665,890.677Zm-11.88-.091a15.673,15.673,0,0,1,5.915,1.742q0,.566-.01,1.131l-5.927-.615Q228.774,891.715,228.785,890.586Z" transform="translate(-209.642 -783.539)" fill="#3fc060"/>
    </g>
  </g>
</svg>
