<svg xmlns="http://www.w3.org/2000/svg" width="94.69" height="94.86" viewBox="0 0 94.69 94.86">
  <g id="Objects" transform="translate(-867.69 -144.9)">
    <path id="Ellipse_" data-name="Ellipse " d="M893.54,244.86a7.92,7.92,0,1,1,7.92,7.9A7.91,7.91,0,0,1,893.54,244.86Zm-39.43,0a7.92,7.92,0,1,1,7.92,7.9A7.91,7.91,0,0,1,854.11,244.86Zm-39.42,0a7.92,7.92,0,1,1,7.92,7.9A7.91,7.91,0,0,1,814.69,244.86Zm78.85-39.531a7.92,7.92,0,1,1,7.92,7.9A7.91,7.91,0,0,1,893.54,205.33Zm-39.43,0a7.92,7.92,0,1,1,7.92,7.9A7.91,7.91,0,0,1,854.11,205.33Zm-39.42,0a7.92,7.92,0,1,1,7.92,7.9A7.91,7.91,0,0,1,814.69,205.33Zm78.85-39.53a7.92,7.92,0,1,1,7.92,7.9A7.91,7.91,0,0,1,893.54,165.8Zm-39.43,0a7.92,7.92,0,1,1,7.92,7.9A7.91,7.91,0,0,1,854.11,165.8Zm-39.42,0a7.92,7.92,0,1,1,7.92,7.9A7.91,7.91,0,0,1,814.69,165.8Z" transform="translate(53 -13)" fill="#3fc060"/>
  </g>
</svg>
