<svg xmlns="http://www.w3.org/2000/svg" width="76.69" height="79.86" viewBox="0 0 76.69 79.86">
  <path id="Ellipse_" data-name="Ellipse " d="M878.551,231.109a6.419,6.419,0,1,1,6.414,6.65A6.536,6.536,0,0,1,878.551,231.109Zm-31.935,0a6.419,6.419,0,1,1,6.414,6.65A6.536,6.536,0,0,1,846.616,231.109Zm-31.926,0a6.419,6.419,0,1,1,6.414,6.65A6.536,6.536,0,0,1,814.69,231.109Zm63.861-33.28a6.419,6.419,0,1,1,6.414,6.651A6.536,6.536,0,0,1,878.551,197.83Zm-31.935,0a6.419,6.419,0,1,1,6.414,6.651A6.536,6.536,0,0,1,846.616,197.83Zm-31.926,0a6.419,6.419,0,1,1,6.414,6.651A6.536,6.536,0,0,1,814.69,197.83Zm63.861-33.279a6.419,6.419,0,1,1,6.414,6.651A6.536,6.536,0,0,1,878.551,164.551Zm-31.935,0a6.419,6.419,0,1,1,6.414,6.651A6.536,6.536,0,0,1,846.616,164.551Zm-31.926,0A6.419,6.419,0,1,1,821.1,171.2,6.536,6.536,0,0,1,814.69,164.551Z" transform="translate(-814.69 -157.9)" fill="#3fc060"/>
</svg>
